<svg xmlns="http://www.w3.org/2000/svg" viewBox="0 0 48 48"><radialGradient id="ig" cx="19.38" cy="42.04" r="44.88" gradientUnits="userSpaceOnUse"><stop offset="0" stop-color="#FD5"/><stop offset=".33" stop-color="#FF543E"/><stop offset=".67" stop-color="#C837AB"/><stop offset="1" stop-color="#3D5AF1"/></radialGradient><path fill="url(#ig)" d="M34.02 12.02c-2.14-.05-3.55.93-4.38 2.83-.42.96-.6 2.01-.63 3.07-.06 1.87-.04 3.74-.04 5.61v5.93c0 .33.02.67.06 1 .2 1.64 1.22 2.75 2.84 3.04.72.13 1.46.15 2.19.15 3.14.01 6.28.01 9.42 0 1.01 0 2-.12 2.91-.59 1.19-.62 1.87-1.6 2.07-2.91.09-.58.12-1.17.12-1.76.01-3.52.01-7.04 0-10.56 0-.78-.08-1.55-.35-2.29-.56-1.53-1.65-2.41-3.22-2.73-.6-.12-1.22-.14-1.83-.14-3.05-.02-6.1-.02-9.16 0zm-10.04 0c-2.14-.05-3.55.93-4.38 2.83-.42.96-.6 2.01-.63 3.07-.06 1.87-.04 3.74-.04 5.61v5.93c0 .33.02.67.06 1 .2 1.64 1.22 2.75 2.84 3.04.72.13 1.46.15 2.19.15 3.14.01 6.28.01 9.42 0 1.01 0 2-.12 2.91-.59 1.19-.62 1.87-1.6 2.07-2.91.09-.58.12-1.17.12-1.76.01-3.52.01-7.04 0-10.56 0-.78-.08-1.55-.35-2.29-.56-1.53-1.65-2.41-3.22-2.73-.6-.12-1.22-.14-1.83-.14-3.05-.02-6.1-.02-9.16 0z"/><path fill="none" d="M24 15.5c-4.69 0-8.5 3.81-8.5 8.5s3.81 8.5 8.5 8.5 8.5-3.81 8.5-8.5-3.81-8.5-8.5-8.5zm0 14c-3.04 0-5.5-2.46-5.5-5.5s2.46-5.5 5.5-5.5 5.5 2.46 5.5 5.5-2.46 5.5-5.5 5.5z"/><circle fill="none" cx="32.5" cy="15.5" r="2"/></svg>