<svg xmlns="http://www.w3.org/2000/svg" viewBox="0 0 48 48"><path fill="#25D366" d="M24 4C12.95 4 4 12.95 4 24c0 4.14 1.27 7.99 3.44 11.17L4.93 43.07l8.09-2.53C15.99 42.37 19.87 43.5 24 43.5c11.05 0 20-8.95 20-20S35.05 4 24 4z"/><path fill="#FFF" d="M33.5 27.5c-.5-.25-2.95-1.45-3.4-1.62-.45-.17-.78-.25-1.1.25-.33.5-1.27 1.62-1.56 1.95-.28.33-.57.37-1.07.12-.5-.25-2.1-.77-4-2.47-1.48-1.32-2.48-2.95-2.77-3.45-.28-.5-.03-.77.22-1.02.23-.23.5-.6.75-.9.25-.3.33-.52.5-.87.17-.35.08-.65-.04-.9-.12-.25-1.1-2.65-1.5-3.63-.4-.95-.8-.82-1.1-.83-.28-.01-.6-.01-.93-.01-.32 0-.85.12-1.3.62-.45.5-1.72 1.68-1.72 4.1s1.77 4.77 2.02 5.1c.25.33 3.48 5.32 8.43 7.46 1.18.51 2.1.81 2.82 1.04 1.18.38 2.26.32 3.11.2.95-.14 2.95-1.2 3.37-2.37.42-1.17.42-2.18.3-2.4-.13-.22-.45-.35-.95-.6z"/></svg>